<svg width="690" height="34" viewBox="0 0 690 34" fill="none" xmlns="http://www.w3.org/2000/svg">
<path d="M14.8996 15.0783H43.8594V22.233H14.8996V15.0783ZM16.5784 34H0L0 0L47.427 0V7.15478L16.5784 7.15478V34Z" fill="#D9D9D9"/>
<path d="M37.7097 34L64.7809 0L81.1495 0L108.326 34H91.9569L70.2371 4.49391H75.7982L53.7636 34H37.7097ZM52.5044 27.2591L56.8064 20.5183H86.6057L90.9077 27.2591H52.5044Z" fill="#D9D9D9"/>
<path d="M107.095 34V0L134.586 0C140.182 0 144.974 0.512464 148.961 1.53739C153.018 2.5229 156.166 3.94203 158.404 5.79478C160.643 7.64754 161.762 9.8945 161.762 12.5357C161.762 15.098 160.643 17.3055 158.404 19.1583C156.166 21.011 153.018 22.4301 148.961 23.4157C144.974 24.4012 140.182 24.8939 134.586 24.8939L116.224 24.8939L123.674 20.9322V34H107.095ZM145.079 34L129.864 21.6417H147.492L162.916 34H145.079ZM123.674 21.9965L117.588 17.7983L133.432 17.7983C137.279 17.7983 140.182 17.3449 142.141 16.4383C144.099 15.4922 145.079 14.1913 145.079 12.5357C145.079 10.8406 144.099 9.53971 142.141 8.63304C140.182 7.72638 137.279 7.27304 133.432 7.27304H117.588L123.674 3.07478V21.9965Z" fill="#D9D9D9"/>
<path d="M157.203 34L184.275 0L200.643 0L227.819 34H211.451L189.731 4.49391H195.292L173.257 34H157.203ZM171.998 27.2591L176.3 20.5183H206.099L210.401 27.2591H171.998Z" fill="#D9D9D9"/>
<path d="M217.565 34L244.636 0L261.005 0L288.181 34H271.812L250.092 4.49391H255.654L233.619 34H217.565ZM232.36 27.2591L236.662 20.5183H266.461L270.763 27.2591H232.36Z" fill="#D9D9D9"/>
<path d="M282.648 34V28.1461L319.163 4.08L321.052 7.27304L283.383 7.27304V0L335.846 0V5.85391L299.227 29.92L297.338 26.727H337.105V34H282.648Z" fill="#D9D9D9"/>
<path d="M403.079 34V0L416.929 0L441.902 22.8835H435.187L459.635 0L473.59 0L473.8 34H458.271L458.166 13.3043H460.474L442.007 30.393H434.557L415.46 13.3043H418.503V34H403.079Z" fill="#D9D9D9"/>
<path d="M472.451 34L499.522 0L515.891 0L543.067 34H526.698L504.979 4.49391H510.54L488.505 34H472.451ZM487.246 27.2591L491.548 20.5183H521.347L525.649 27.2591H487.246Z" fill="#D9D9D9"/>
<path d="M541.837 34V0L570.272 0C577.197 0 583.213 0.689854 588.319 2.06957C593.496 3.44928 597.483 5.42029 600.281 7.98261C603.149 10.5055 604.583 13.5212 604.583 17.0296C604.583 20.4986 603.149 23.5142 600.281 26.0765C597.483 28.5994 593.496 30.5507 588.319 31.9304C583.213 33.3101 577.197 34 570.272 34H541.837ZM558.415 26.6678H569.747C573.455 26.6678 576.637 26.2933 579.296 25.5443C582.024 24.7954 584.122 23.7113 585.591 22.2922C587.06 20.8336 587.795 19.0794 587.795 17.0296C587.795 14.9403 587.06 13.1861 585.591 11.767C584.122 10.3084 582.024 9.20464 579.296 8.45565C576.637 7.70667 573.455 7.33217 569.747 7.33217H558.415V26.6678Z" fill="#D9D9D9"/>
<path d="M607.937 34V0L621.577 0L655.573 23.0017H649.383V0L665.646 0V34H652.006L617.905 10.9983H624.2V34H607.937Z" fill="#D9D9D9"/>
<path d="M673.422 34V0L690 0V34H673.422Z" fill="#D9D9D9"/>
</svg>
